<svg width="67" height="11" viewBox="0 0 67 11" fill="none" xmlns="http://www.w3.org/2000/svg">
<path fill-rule="evenodd" clip-rule="evenodd" d="M29.7766 5.37533C29.7766 8.3486 27.672 10.4899 24.749 10.4899C21.839 10.4899 19.7085 8.3486 19.7085 5.37533C19.7085 2.40205 21.839 0.260742 24.749 0.260742C27.6591 0.260742 29.7766 2.40205 29.7766 5.37533ZM21.7221 5.37533C21.7221 7.32569 22.9823 8.70321 24.7361 8.70321C26.5028 8.70321 27.763 7.32569 27.763 5.37533C27.763 3.45224 26.5028 2.04744 24.7361 2.04744C22.9823 2.04744 21.7221 3.45224 21.7221 5.37533ZM12.8096 0.260905C9.89966 0.260905 7.76913 2.40221 7.76913 5.37549C7.76913 6.53479 8.0939 7.55771 8.66551 8.38968H1.42951C0.870894 8.38968 0.429199 8.86704 0.429199 9.43988V10.4901H12.8096H12.8226C15.7326 10.4901 17.8502 8.34877 17.8502 5.37549C17.8372 2.40221 15.7326 0.260905 12.8096 0.260905ZM12.7967 8.70338C11.0559 8.70338 9.78274 7.32585 9.78274 5.37549C9.78274 3.4524 11.0429 2.0476 12.7967 2.0476C14.5634 2.0476 15.8236 3.4524 15.8236 5.37549C15.8236 7.32585 14.5634 8.70338 12.7967 8.70338ZM40.4169 4.61155V9.43972H40.3779V10.4899H39.3776C38.8319 10.4899 38.3773 10.0262 38.3773 9.43972V4.61155C38.3773 3.02944 37.4419 1.99288 35.9999 1.99288C34.5579 1.99288 33.6225 3.04308 33.6225 4.61155V10.4899H32.6222C32.0766 10.4899 31.6219 10.0262 31.6219 9.43972V4.61155C31.6219 2.02016 33.4017 0.260742 35.9999 0.260742C38.6241 0.260742 40.4169 2.02016 40.4169 4.61155ZM51.0557 1.10635V0.260742H50.0684C49.5098 0.260742 49.0681 0.738103 49.0681 1.31094V6.15274C49.0681 7.72122 48.1067 8.74413 46.6647 8.74413C45.2227 8.74413 44.2873 7.72122 44.2873 6.15274V4.95252V1.51552V1.10635V0.260742H43.3C42.7414 0.260742 42.2997 0.724464 42.2997 1.31094V6.16638C42.2997 8.74413 44.0795 10.4899 46.6907 10.4899C49.2889 10.4899 51.0687 8.73049 51.0687 6.16638V3.69774V1.51552L51.0557 1.10635ZM59.9294 2.15655C60.514 0.969965 61.7092 0.260742 63.2291 0.260742C65.4636 0.260742 66.9316 1.82921 66.9186 4.21602V10.4899H65.9183C65.3727 10.4899 64.918 10.0262 64.918 9.43972V4.16146C64.918 2.83849 64.1385 1.93833 62.9303 1.93833C61.7222 1.93833 60.9167 2.83849 60.9167 4.16146V7.73485V9.23513V9.6443V10.3399V10.4899H59.9294C59.3838 10.4899 58.9291 10.0262 58.9291 9.43972V4.16146C58.9291 2.83849 58.1236 1.93833 56.9155 1.93833C55.7073 1.93833 54.9278 2.83849 54.9278 4.16146V9.42608V10.4763H53.9275C53.3819 10.4763 52.9272 10.0125 52.9272 9.42608V4.21602C52.9272 1.82921 54.3822 0.260742 56.6297 0.260742C58.1496 0.260742 59.3448 0.969965 59.9294 2.15655Z" fill="black"/>
</svg>
