<svg width="124" height="17" viewBox="0 0 124 17" fill="none" xmlns="http://www.w3.org/2000/svg">
<g clip-path="url(#clip0)">
<path d="M17.0589 1.16278C15.4272 1.38168 15.0277 1.60057 14.134 3.7828C13.4772 5.38242 10.1122 13.5051 8.91718 16.5124H8.11485C6.67609 12.6093 4.58058 6.93489 3.18921 3.345C2.51214 1.55005 2.09236 1.30759 0.606201 1.16278V0.489258H6.79796V1.16278C4.99358 1.35811 4.89541 1.64772 5.23733 2.54687C5.84669 4.31488 7.62737 9.14069 9.16092 13.1684C10.4541 10.0398 12.0621 6.09635 13.2233 3.03181C13.7582 1.62414 13.4671 1.40525 11.4663 1.16278V0.489258H17.0724L17.0589 1.16278Z" fill="black"/>
<path d="M27.4346 16.2464V15.5729C29.4319 15.3573 29.6283 15.2597 29.6283 13.2155V3.5639C29.6283 1.47934 29.4319 1.38168 27.4346 1.16278V0.489258H33.9683V1.16278C31.9371 1.38168 31.7475 1.47934 31.7475 3.5639V13.1919C31.7475 15.2765 31.9438 15.3506 33.9683 15.5493V16.2228L27.4346 16.2464Z" fill="black"/>
<path d="M58.7861 16.4417C58.4713 16.4417 58.2005 16.4147 57.8856 16.3911C56.1049 16.2699 55.1537 15.8085 54.0805 14.3066C53.18 13.0707 52.3032 11.5418 51.5212 10.3058C51.0337 9.52792 50.7189 9.38311 49.49 9.38311H48.6335V13.1919C48.6335 15.2529 48.9044 15.3741 50.8543 15.5492V16.2228H44.3308V15.5492C46.362 15.3337 46.5245 15.236 46.5245 13.1919V3.5167C46.5245 1.45572 46.2571 1.38163 44.3308 1.15937V0.48584H50.5463C52.3269 0.48584 53.5219 0.70474 54.4461 1.31091C54.9791 1.65472 55.4126 2.1311 55.7035 2.69284C55.9945 3.25459 56.1329 3.8822 56.105 4.51352C56.105 6.59808 54.7508 7.90809 52.96 8.68264C53.4001 9.43699 54.4461 11.0602 55.1808 12.1513C55.7618 13.0282 56.4044 13.8632 57.1036 14.6501C57.5684 15.1943 58.19 15.5834 58.8843 15.7648L58.7861 16.4417ZM49.7913 8.54794C51.0608 8.54794 51.8631 8.35599 52.4725 7.84748C53.4238 7.14364 53.8266 6.16366 53.8266 4.86375C53.8266 2.26731 52.0967 1.32438 50.2213 1.32438C49.5137 1.32438 49.0973 1.41867 48.9281 1.56684C48.708 1.73523 48.6335 1.97769 48.6335 2.60744V8.54794H49.7913Z" fill="black"/>
<path d="M86.5521 1.16278C84.9949 1.33453 84.4803 1.57699 84.4092 2.69168C84.3821 3.46623 84.3347 4.48662 84.3347 6.73283V16.4585H83.4071L72.977 3.7828V9.84453C72.977 12.0267 73.0481 13.1179 73.0988 13.8217C73.1462 15.0576 73.7556 15.4213 75.5092 15.5661V16.2396H69.5883V15.5661C71.0981 15.4449 71.6838 15.0812 71.7819 13.8823C71.853 13.1044 71.9038 12.0133 71.9038 9.80748V3.63799C71.9038 2.96447 71.853 2.57045 71.4163 2.035C70.9525 1.42882 70.4414 1.28402 69.2463 1.16278V0.489258H72.9025L83.2379 12.6868V6.73957C83.2379 4.48663 83.1905 3.44266 83.116 2.71525C83.0415 1.62414 82.483 1.28402 80.533 1.16278V0.489258H86.5521V1.16278Z" fill="black"/>
<path d="M106.982 16.2465V15.573C108.566 15.3811 108.759 15.1386 108.421 14.226C108.082 13.3133 107.615 12.0673 107.104 10.5418H101.836C101.447 11.6329 101.081 12.5624 100.739 13.5726C100.205 15.1487 100.547 15.3407 102.544 15.5932V16.2667H96.9141V15.5932C98.451 15.4013 98.8403 15.2295 99.6934 13.0473L104.738 0.317657L105.52 0.172852C107.053 4.3184 108.736 8.90174 110.259 13.0978C111.038 15.2059 111.258 15.4013 112.988 15.5932V16.2667L106.982 16.2465ZM104.545 3.32159C103.763 5.40615 102.933 7.61194 102.202 9.52812H106.762L104.545 3.32159Z" fill="black"/>
</g>
<defs>
<clipPath id="clip0">
<rect width="122.75" height="16.3667" fill="white" transform="translate(0.606201 0.145996)"/>
</clipPath>
</defs>
</svg>
